<svg width="30" height="30" viewBox="0 0 30 30" fill="none" xmlns="http://www.w3.org/2000/svg">
<path d="M23.2636 30H25.5273C26.6727 30 27.6136 29.1269 27.75 28.0082L30 5.52524H23.1818V0H20.4955V5.52524H13.7182L14.1273 8.7176C16.4591 9.3588 18.6409 10.5184 19.95 11.8008C21.9136 13.7381 23.2636 15.7435 23.2636 19.0177V30ZM0 28.6357V27.2851H20.4955V28.6357C20.4955 29.3861 19.8818 30 19.1182 30H1.37727C0.613636 30 0 29.3861 0 28.6357ZM20.4955 19.0859C20.4955 8.1719 0 8.1719 0 19.0859H20.4955ZM0.0272727 21.8281H20.4818V24.5566H0.0272727V21.8281Z" fill="black"/>
</svg>
