<svg width="20" height="20" viewBox="0 0 20 20" fill="none" xmlns="http://www.w3.org/2000/svg">
<g clip-path="url(#clip0_186_23)">
<path d="M9.7915 2.08334C5.3065 2.08334 1.6665 5.72334 1.6665 10.2083C1.6665 14.6933 5.3065 18.3333 9.7915 18.3333C14.2765 18.3333 17.9165 14.6933 17.9165 10.2083C17.9165 5.72334 14.2765 2.08334 9.7915 2.08334ZM9.7915 4.52084C11.1403 4.52084 12.229 5.60959 12.229 6.95834C12.229 8.30709 11.1403 9.39584 9.7915 9.39584C8.44275 9.39584 7.354 8.30709 7.354 6.95834C7.354 5.60959 8.44275 4.52084 9.7915 4.52084ZM9.7915 16.0583C7.76025 16.0583 5.96463 15.0183 4.9165 13.4421C4.94088 11.8252 8.1665 10.9396 9.7915 10.9396C11.4084 10.9396 14.6421 11.8252 14.6665 13.4421C13.6184 15.0183 11.8228 16.0583 9.7915 16.0583Z" fill="black"/>
</g>
<defs>
<clipPath id="clip0_186_23">
<rect width="20" height="20" fill="white"/>
</clipPath>
</defs>
</svg>
